<mxfile host="app.diagrams.net" modified="2024-04-27T15:30:48.331Z" agent="Mozilla/5.0 (Windows NT 10.0; Win64; x64; rv:125.0) Gecko/20100101 Firefox/125.0" etag="hLagdKXN1OoADU9Fit_t" version="24.2.8" type="device">
  <diagram name="Page-1" id="h0oFKHPBlxJ2JizImdTO">
    <mxGraphModel dx="1192" dy="1583" grid="0" gridSize="10" guides="1" tooltips="1" connect="1" arrows="1" fold="1" page="0" pageScale="1" pageWidth="827" pageHeight="1169" math="0" shadow="0">
      <root>
        <mxCell id="0" />
        <mxCell id="1" parent="0" />
        <mxCell id="dBu7EsXMwN8Nj1eIq-Uy-84" value="" style="rounded=0;whiteSpace=wrap;html=1;" vertex="1" parent="1">
          <mxGeometry x="-338" y="110" width="113" height="23" as="geometry" />
        </mxCell>
        <mxCell id="dBu7EsXMwN8Nj1eIq-Uy-51" value="" style="rounded=0;whiteSpace=wrap;html=1;" vertex="1" parent="1">
          <mxGeometry x="-142" y="21" width="368" height="188" as="geometry" />
        </mxCell>
        <mxCell id="dBu7EsXMwN8Nj1eIq-Uy-67" style="edgeStyle=none;curved=1;rounded=0;orthogonalLoop=1;jettySize=auto;html=1;exitX=0.5;exitY=1;exitDx=0;exitDy=0;fontSize=12;startSize=8;endSize=8;" edge="1" parent="1" source="dBu7EsXMwN8Nj1eIq-Uy-52" target="dBu7EsXMwN8Nj1eIq-Uy-53">
          <mxGeometry relative="1" as="geometry" />
        </mxCell>
        <mxCell id="dBu7EsXMwN8Nj1eIq-Uy-52" value="&lt;div&gt;global_planner&lt;/div&gt;&lt;div&gt;&lt;br&gt;&lt;/div&gt;" style="ellipse;whiteSpace=wrap;html=1;" vertex="1" parent="1">
          <mxGeometry x="-127" y="38" width="162" height="57" as="geometry" />
        </mxCell>
        <mxCell id="dBu7EsXMwN8Nj1eIq-Uy-73" style="edgeStyle=none;curved=1;rounded=0;orthogonalLoop=1;jettySize=auto;html=1;exitX=0.5;exitY=1;exitDx=0;exitDy=0;fontSize=12;startSize=8;endSize=8;" edge="1" parent="1" source="dBu7EsXMwN8Nj1eIq-Uy-53" target="dBu7EsXMwN8Nj1eIq-Uy-72">
          <mxGeometry relative="1" as="geometry" />
        </mxCell>
        <mxCell id="dBu7EsXMwN8Nj1eIq-Uy-53" value="&lt;div&gt;local_planner&lt;/div&gt;&lt;div&gt;(DWA)&lt;br&gt;&lt;/div&gt;" style="ellipse;whiteSpace=wrap;html=1;" vertex="1" parent="1">
          <mxGeometry x="-106" y="143" width="120" height="43" as="geometry" />
        </mxCell>
        <mxCell id="dBu7EsXMwN8Nj1eIq-Uy-75" style="edgeStyle=none;curved=1;rounded=0;orthogonalLoop=1;jettySize=auto;html=1;exitX=0;exitY=0.5;exitDx=0;exitDy=0;fontSize=12;startSize=8;endSize=8;" edge="1" parent="1" source="dBu7EsXMwN8Nj1eIq-Uy-54" target="dBu7EsXMwN8Nj1eIq-Uy-53">
          <mxGeometry relative="1" as="geometry" />
        </mxCell>
        <mxCell id="dBu7EsXMwN8Nj1eIq-Uy-76" style="edgeStyle=none;curved=1;rounded=0;orthogonalLoop=1;jettySize=auto;html=1;exitX=0;exitY=0;exitDx=0;exitDy=0;fontSize=12;startSize=8;endSize=8;" edge="1" parent="1" source="dBu7EsXMwN8Nj1eIq-Uy-54" target="dBu7EsXMwN8Nj1eIq-Uy-55">
          <mxGeometry relative="1" as="geometry" />
        </mxCell>
        <mxCell id="dBu7EsXMwN8Nj1eIq-Uy-54" value="local_costmap" style="ellipse;whiteSpace=wrap;html=1;" vertex="1" parent="1">
          <mxGeometry x="70" y="143" width="120" height="43" as="geometry" />
        </mxCell>
        <mxCell id="dBu7EsXMwN8Nj1eIq-Uy-55" value="recovery_behaviors" style="ellipse;whiteSpace=wrap;html=1;" vertex="1" parent="1">
          <mxGeometry x="-18" y="93.5" width="120" height="43" as="geometry" />
        </mxCell>
        <mxCell id="dBu7EsXMwN8Nj1eIq-Uy-77" style="edgeStyle=none;curved=1;rounded=0;orthogonalLoop=1;jettySize=auto;html=1;exitX=0;exitY=1;exitDx=0;exitDy=0;fontSize=12;startSize=8;endSize=8;" edge="1" parent="1" source="dBu7EsXMwN8Nj1eIq-Uy-56" target="dBu7EsXMwN8Nj1eIq-Uy-55">
          <mxGeometry relative="1" as="geometry" />
        </mxCell>
        <mxCell id="dBu7EsXMwN8Nj1eIq-Uy-78" style="edgeStyle=none;curved=1;rounded=0;orthogonalLoop=1;jettySize=auto;html=1;exitX=0.5;exitY=1;exitDx=0;exitDy=0;fontSize=12;startSize=8;endSize=8;startArrow=none;startFill=0;" edge="1" parent="1" source="dBu7EsXMwN8Nj1eIq-Uy-91" target="dBu7EsXMwN8Nj1eIq-Uy-54">
          <mxGeometry relative="1" as="geometry" />
        </mxCell>
        <mxCell id="dBu7EsXMwN8Nj1eIq-Uy-82" style="edgeStyle=none;curved=1;rounded=0;orthogonalLoop=1;jettySize=auto;html=1;exitX=0;exitY=0.5;exitDx=0;exitDy=0;entryX=1;entryY=0.5;entryDx=0;entryDy=0;fontSize=12;startSize=8;endSize=8;" edge="1" parent="1" source="dBu7EsXMwN8Nj1eIq-Uy-56" target="dBu7EsXMwN8Nj1eIq-Uy-52">
          <mxGeometry relative="1" as="geometry" />
        </mxCell>
        <mxCell id="dBu7EsXMwN8Nj1eIq-Uy-56" value="&lt;div&gt;global_costmap&lt;/div&gt;&lt;div&gt;&lt;br&gt;&lt;/div&gt;" style="ellipse;whiteSpace=wrap;html=1;" vertex="1" parent="1">
          <mxGeometry x="70" y="45" width="120" height="43" as="geometry" />
        </mxCell>
        <mxCell id="dBu7EsXMwN8Nj1eIq-Uy-57" value="" style="endArrow=none;html=1;rounded=0;fontSize=12;startSize=8;endSize=8;curved=1;" edge="1" parent="1" source="dBu7EsXMwN8Nj1eIq-Uy-62">
          <mxGeometry width="50" height="50" relative="1" as="geometry">
            <mxPoint x="-49" y="38" as="sourcePoint" />
            <mxPoint x="-49" y="-30" as="targetPoint" />
          </mxGeometry>
        </mxCell>
        <mxCell id="dBu7EsXMwN8Nj1eIq-Uy-58" value="&lt;div&gt;nav2_custom_planner_client&lt;/div&gt;&lt;div&gt;(global_planner_plugin)&lt;br&gt;&lt;/div&gt;" style="ellipse;whiteSpace=wrap;html=1;" vertex="1" parent="1">
          <mxGeometry x="-134" y="-59" width="162" height="57" as="geometry" />
        </mxCell>
        <mxCell id="dBu7EsXMwN8Nj1eIq-Uy-59" value="" style="endArrow=classic;startArrow=classic;html=1;rounded=0;fontSize=12;startSize=8;endSize=8;curved=1;entryX=0.5;entryY=1;entryDx=0;entryDy=0;" edge="1" parent="1" target="dBu7EsXMwN8Nj1eIq-Uy-60">
          <mxGeometry width="50" height="50" relative="1" as="geometry">
            <mxPoint x="-52.5" y="-59" as="sourcePoint" />
            <mxPoint x="-55" y="-114" as="targetPoint" />
          </mxGeometry>
        </mxCell>
        <mxCell id="dBu7EsXMwN8Nj1eIq-Uy-60" value="custom_planner_server" style="ellipse;whiteSpace=wrap;html=1;" vertex="1" parent="1">
          <mxGeometry x="-134" y="-171" width="162" height="49" as="geometry" />
        </mxCell>
        <mxCell id="dBu7EsXMwN8Nj1eIq-Uy-61" value="&lt;div align=&quot;center&quot; style=&quot;line-height: 40%;&quot;&gt;&lt;font style=&quot;font-size: 8px;&quot;&gt;&quot;/custom_planner_server&quot;&lt;/font&gt;&lt;/div&gt;&lt;div align=&quot;center&quot; style=&quot;line-height: 40%;&quot;&gt;&lt;font style=&quot;font-size: 8px;&quot;&gt;custom_planner_interfaces/srv/CustomPlannerInterfaces&lt;br&gt;&lt;/font&gt;&lt;/div&gt;" style="text;html=1;align=center;verticalAlign=middle;whiteSpace=wrap;rounded=0;fontSize=16;" vertex="1" parent="1">
          <mxGeometry x="-50" y="-112" width="209" height="42" as="geometry" />
        </mxCell>
        <mxCell id="dBu7EsXMwN8Nj1eIq-Uy-63" value="" style="endArrow=none;html=1;rounded=0;fontSize=12;startSize=8;endSize=8;curved=1;" edge="1" parent="1" target="dBu7EsXMwN8Nj1eIq-Uy-62">
          <mxGeometry width="50" height="50" relative="1" as="geometry">
            <mxPoint x="-49" y="38" as="sourcePoint" />
            <mxPoint x="-49" y="-30" as="targetPoint" />
          </mxGeometry>
        </mxCell>
        <mxCell id="dBu7EsXMwN8Nj1eIq-Uy-62" value="" style="ellipse;whiteSpace=wrap;html=1;fillColor=#f5f5f5;strokeColor=#666666;fontColor=#333333;" vertex="1" parent="1">
          <mxGeometry x="-58" y="9" width="17" height="18" as="geometry" />
        </mxCell>
        <mxCell id="dBu7EsXMwN8Nj1eIq-Uy-66" style="edgeStyle=none;curved=1;rounded=0;orthogonalLoop=1;jettySize=auto;html=1;exitX=1;exitY=0.5;exitDx=0;exitDy=0;entryX=0;entryY=0.5;entryDx=0;entryDy=0;fontSize=12;startSize=8;endSize=8;" edge="1" parent="1" source="dBu7EsXMwN8Nj1eIq-Uy-65" target="dBu7EsXMwN8Nj1eIq-Uy-52">
          <mxGeometry relative="1" as="geometry" />
        </mxCell>
        <mxCell id="dBu7EsXMwN8Nj1eIq-Uy-65" value="&lt;div style=&quot;font-size: 8px;&quot;&gt;&lt;font style=&quot;font-size: 8px;&quot;&gt;&quot;move_base_simple/goal&quot;&lt;/font&gt;&lt;/div&gt;&lt;div style=&quot;font-size: 8px;&quot;&gt;&lt;font style=&quot;font-size: 8px;&quot;&gt;geometry_msgs/PoseStamped&lt;br&gt;&lt;/font&gt;&lt;/div&gt;" style="text;html=1;align=center;verticalAlign=middle;whiteSpace=wrap;rounded=0;fontSize=16;" vertex="1" parent="1">
          <mxGeometry x="-271" y="51.5" width="106" height="30" as="geometry" />
        </mxCell>
        <mxCell id="dBu7EsXMwN8Nj1eIq-Uy-68" value="&lt;div style=&quot;font-size: 8px;&quot;&gt;&lt;font style=&quot;font-size: 8px;&quot;&gt;internal&lt;/font&gt;&lt;/div&gt;&lt;div style=&quot;font-size: 8px;&quot;&gt;&lt;font style=&quot;font-size: 8px;&quot;&gt;nav_msgs/Path&lt;br&gt;&lt;/font&gt;&lt;/div&gt;" style="text;html=1;align=center;verticalAlign=middle;whiteSpace=wrap;rounded=0;fontSize=16;" vertex="1" parent="1">
          <mxGeometry x="-111" y="98" width="61" height="38" as="geometry" />
        </mxCell>
        <mxCell id="dBu7EsXMwN8Nj1eIq-Uy-70" style="edgeStyle=none;curved=1;rounded=0;orthogonalLoop=1;jettySize=auto;html=1;exitX=1;exitY=0.5;exitDx=0;exitDy=0;fontSize=12;startSize=8;endSize=8;" edge="1" parent="1" source="dBu7EsXMwN8Nj1eIq-Uy-69" target="dBu7EsXMwN8Nj1eIq-Uy-53">
          <mxGeometry relative="1" as="geometry" />
        </mxCell>
        <mxCell id="dBu7EsXMwN8Nj1eIq-Uy-69" value="odometry source" style="rounded=0;whiteSpace=wrap;html=1;" vertex="1" parent="1">
          <mxGeometry x="-322" y="153" width="101" height="23" as="geometry" />
        </mxCell>
        <mxCell id="dBu7EsXMwN8Nj1eIq-Uy-85" style="edgeStyle=none;curved=1;rounded=0;orthogonalLoop=1;jettySize=auto;html=1;exitX=1;exitY=0.25;exitDx=0;exitDy=0;fontSize=12;startSize=8;endSize=8;entryX=1;entryY=0.5;entryDx=0;entryDy=0;endArrow=none;endFill=0;" edge="1" parent="1" source="dBu7EsXMwN8Nj1eIq-Uy-69" target="dBu7EsXMwN8Nj1eIq-Uy-83">
          <mxGeometry relative="1" as="geometry">
            <mxPoint x="-180.83333333333326" y="126.5" as="targetPoint" />
            <Array as="points">
              <mxPoint x="-203" y="148" />
              <mxPoint x="-205" y="129" />
            </Array>
          </mxGeometry>
        </mxCell>
        <mxCell id="dBu7EsXMwN8Nj1eIq-Uy-71" value="&lt;div style=&quot;font-size: 8px;&quot;&gt;&lt;font style=&quot;font-size: 8px;&quot;&gt;&quot;odom&quot;&lt;/font&gt;&lt;/div&gt;&lt;div style=&quot;font-size: 8px;&quot;&gt;&lt;font style=&quot;font-size: 8px;&quot;&gt;nav_msgs/Odometry&lt;br&gt;&lt;/font&gt;&lt;/div&gt;" style="text;html=1;align=center;verticalAlign=middle;whiteSpace=wrap;rounded=0;fontSize=16;" vertex="1" parent="1">
          <mxGeometry x="-220" y="149.5" width="78" height="30" as="geometry" />
        </mxCell>
        <mxCell id="dBu7EsXMwN8Nj1eIq-Uy-72" value="base controller" style="rounded=0;whiteSpace=wrap;html=1;" vertex="1" parent="1">
          <mxGeometry x="-96.5" y="268" width="101" height="23" as="geometry" />
        </mxCell>
        <mxCell id="dBu7EsXMwN8Nj1eIq-Uy-74" value="&lt;div style=&quot;font-size: 8px;&quot;&gt;&lt;font style=&quot;font-size: 8px;&quot;&gt;&quot;cmd_vel&quot;&lt;/font&gt;&lt;/div&gt;&lt;div style=&quot;font-size: 8px;&quot;&gt;&lt;font style=&quot;font-size: 8px;&quot;&gt;geometry_msgs/Twist&lt;br&gt;&lt;/font&gt;&lt;/div&gt;" style="text;html=1;align=center;verticalAlign=middle;whiteSpace=wrap;rounded=0;fontSize=16;" vertex="1" parent="1">
          <mxGeometry x="-50" y="209" width="90" height="38" as="geometry" />
        </mxCell>
        <mxCell id="dBu7EsXMwN8Nj1eIq-Uy-80" style="edgeStyle=none;curved=1;rounded=0;orthogonalLoop=1;jettySize=auto;html=1;exitX=0;exitY=0.5;exitDx=0;exitDy=0;entryX=1;entryY=0;entryDx=0;entryDy=0;fontSize=12;startSize=8;endSize=8;" edge="1" parent="1" source="dBu7EsXMwN8Nj1eIq-Uy-79" target="dBu7EsXMwN8Nj1eIq-Uy-56">
          <mxGeometry relative="1" as="geometry">
            <Array as="points">
              <mxPoint x="193" y="32" />
            </Array>
          </mxGeometry>
        </mxCell>
        <mxCell id="dBu7EsXMwN8Nj1eIq-Uy-79" value="map_server" style="rounded=0;whiteSpace=wrap;html=1;" vertex="1" parent="1">
          <mxGeometry x="322" y="21" width="101" height="23" as="geometry" />
        </mxCell>
        <mxCell id="dBu7EsXMwN8Nj1eIq-Uy-81" value="&lt;div style=&quot;font-size: 8px;&quot;&gt;&lt;font style=&quot;font-size: 8px;&quot;&gt;&quot;/map&quot;&lt;/font&gt;&lt;/div&gt;&lt;div style=&quot;font-size: 8px;&quot;&gt;&lt;font style=&quot;font-size: 8px;&quot;&gt;nav_msgs/GetMap&lt;br&gt;&lt;/font&gt;&lt;/div&gt;" style="text;html=1;align=center;verticalAlign=middle;whiteSpace=wrap;rounded=0;fontSize=16;" vertex="1" parent="1">
          <mxGeometry x="238" y="1.5" width="76" height="33" as="geometry" />
        </mxCell>
        <mxCell id="dBu7EsXMwN8Nj1eIq-Uy-88" style="edgeStyle=none;curved=1;rounded=0;orthogonalLoop=1;jettySize=auto;html=1;exitX=1;exitY=0.5;exitDx=0;exitDy=0;entryX=1;entryY=0.5;entryDx=0;entryDy=0;fontSize=12;startSize=8;endSize=8;endArrow=none;endFill=0;" edge="1" parent="1" source="dBu7EsXMwN8Nj1eIq-Uy-83" target="dBu7EsXMwN8Nj1eIq-Uy-86">
          <mxGeometry relative="1" as="geometry">
            <Array as="points">
              <mxPoint x="-185" y="91" />
            </Array>
          </mxGeometry>
        </mxCell>
        <mxCell id="dBu7EsXMwN8Nj1eIq-Uy-83" value="sensor transforms" style="rounded=0;whiteSpace=wrap;html=1;" vertex="1" parent="1">
          <mxGeometry x="-333" y="113.5" width="113" height="23" as="geometry" />
        </mxCell>
        <mxCell id="dBu7EsXMwN8Nj1eIq-Uy-86" value="&lt;div&gt;amcl&lt;/div&gt;" style="rounded=0;whiteSpace=wrap;html=1;" vertex="1" parent="1">
          <mxGeometry x="-333" y="75" width="56" height="23" as="geometry" />
        </mxCell>
        <mxCell id="dBu7EsXMwN8Nj1eIq-Uy-89" style="edgeStyle=none;curved=1;rounded=0;orthogonalLoop=1;jettySize=auto;html=1;exitX=1;exitY=0.5;exitDx=0;exitDy=0;entryX=0.01;entryY=0.552;entryDx=0;entryDy=0;entryPerimeter=0;fontSize=12;startSize=8;endSize=8;" edge="1" parent="1" source="dBu7EsXMwN8Nj1eIq-Uy-83" target="dBu7EsXMwN8Nj1eIq-Uy-51">
          <mxGeometry relative="1" as="geometry" />
        </mxCell>
        <mxCell id="dBu7EsXMwN8Nj1eIq-Uy-90" value="&lt;div style=&quot;font-size: 8px;&quot;&gt;&lt;font style=&quot;font-size: 8px;&quot;&gt;&quot;tf&quot;&lt;/font&gt;&lt;/div&gt;&lt;div style=&quot;font-size: 8px;&quot;&gt;&lt;font style=&quot;font-size: 8px;&quot;&gt;tf/tfMessage&lt;br&gt;&lt;/font&gt;&lt;/div&gt;" style="edgeLabel;html=1;align=center;verticalAlign=middle;resizable=0;points=[];fontSize=12;" vertex="1" connectable="0" parent="dBu7EsXMwN8Nj1eIq-Uy-89">
          <mxGeometry x="0.0203" y="1" relative="1" as="geometry">
            <mxPoint x="-7" y="-9" as="offset" />
          </mxGeometry>
        </mxCell>
        <mxCell id="dBu7EsXMwN8Nj1eIq-Uy-92" value="" style="edgeStyle=none;curved=1;rounded=0;orthogonalLoop=1;jettySize=auto;html=1;exitX=0.5;exitY=1;exitDx=0;exitDy=0;fontSize=12;startSize=8;endSize=8;startArrow=classic;startFill=1;endArrow=none;endFill=0;" edge="1" parent="1" source="dBu7EsXMwN8Nj1eIq-Uy-56" target="dBu7EsXMwN8Nj1eIq-Uy-91">
          <mxGeometry relative="1" as="geometry">
            <mxPoint x="130" y="88" as="sourcePoint" />
            <mxPoint x="130" y="143" as="targetPoint" />
          </mxGeometry>
        </mxCell>
        <mxCell id="dBu7EsXMwN8Nj1eIq-Uy-91" value="" style="ellipse;whiteSpace=wrap;html=1;aspect=fixed;" vertex="1" parent="1">
          <mxGeometry x="121.5" y="106.5" width="17" height="17" as="geometry" />
        </mxCell>
        <mxCell id="dBu7EsXMwN8Nj1eIq-Uy-96" style="edgeStyle=none;curved=1;rounded=0;orthogonalLoop=1;jettySize=auto;html=1;exitX=0;exitY=0.5;exitDx=0;exitDy=0;entryX=1;entryY=0.5;entryDx=0;entryDy=0;fontSize=12;startSize=8;endSize=8;endArrow=none;endFill=0;" edge="1" parent="1" source="dBu7EsXMwN8Nj1eIq-Uy-94" target="dBu7EsXMwN8Nj1eIq-Uy-91">
          <mxGeometry relative="1" as="geometry" />
        </mxCell>
        <mxCell id="dBu7EsXMwN8Nj1eIq-Uy-94" value="" style="rounded=0;whiteSpace=wrap;html=1;" vertex="1" parent="1">
          <mxGeometry x="345" y="101.75" width="113" height="23" as="geometry" />
        </mxCell>
        <mxCell id="dBu7EsXMwN8Nj1eIq-Uy-95" value="sensor sources" style="rounded=0;whiteSpace=wrap;html=1;" vertex="1" parent="1">
          <mxGeometry x="350" y="105.25" width="113" height="23" as="geometry" />
        </mxCell>
        <mxCell id="dBu7EsXMwN8Nj1eIq-Uy-97" value="&lt;div style=&quot;font-size: 8px;&quot;&gt;&lt;font style=&quot;font-size: 8px;&quot;&gt;sensor topics&lt;/font&gt;&lt;/div&gt;&lt;div style=&quot;font-size: 8px;&quot;&gt;&lt;font style=&quot;font-size: 8px;&quot;&gt;sensor_msgs/LaserScan&lt;/font&gt;&lt;/div&gt;&lt;div style=&quot;font-size: 8px;&quot;&gt;&lt;font style=&quot;font-size: 8px;&quot;&gt;sensor_msgs/PointCloud&lt;br&gt;&lt;/font&gt;&lt;/div&gt;" style="text;html=1;align=center;verticalAlign=middle;whiteSpace=wrap;rounded=0;fontSize=16;" vertex="1" parent="1">
          <mxGeometry x="221" y="81.5" width="118" height="33" as="geometry" />
        </mxCell>
      </root>
    </mxGraphModel>
  </diagram>
</mxfile>
